# xmcd
#
# Track frame offsets:
#	150
#	15715
#	35172
#	53772
#	76572
#	96360
#	107890
#	121222
#	133230
#	147772
#	161852
#	181422
#	197467
#	213372
#	224697
#	236990
#	252897
#	270752
#
# Disc length: 3897 seconds
#
# Revision: 1
# Processed by: cddbd v1.5.2PL0 Copyright (c) Steve Scherf et al.
# Submitted via: EZCDAudioConverter 3.1.2.1
#
DISCID=050f3712
DTITLE=Various Artist - Fazer Music Xtra trax 2
DYEAR=1996
DGENRE=Suomi
TTITLE0=Tavaramarkkinat - Kev‰t
TTITLE1=Susi-Artturi - Yksin‰inen mopomies
TTITLE2=Ile Kallio - Tyhj‰ huone
TTITLE3=Seppo N‰rhi - Soittaja
TTITLE4=Kojo - So mean
TTITLE5=Annika - Itseteossa
TTITLE6=Neumann - Menn‰‰n hiljaa markkinoille
TTITLE7=Kotka rankki ohutta yl‰pilve‰ - Pearl Harbour
TTITLE8=Vanha is‰nt‰ - Onkimiehen blues
TTITLE9=Martti Innanen - Tyrv‰‰n n‰rhet
TTITLE10=Tinni - Lentoon
TTITLE11=Broadcast - Who's got the ball
TTITLE12=Petri and Petterson Brass - P‰‰ttˆm‰ll‰ pollella
TTITLE13=Urpo - Teryleeni‰
TTITLE14=Muska - Kirjoita postikorttiin
TTITLE15=Eero ja Jussi - Mie ja Bobby McGee
TTITLE16=Fabrics - Summer is fading
TTITLE17=L‰ttykettu&Tehosekoittajat - Letkautus
EXTD=
EXTT0=
EXTT1=
EXTT2=
EXTT3=
EXTT4=
EXTT5=
EXTT6=
EXTT7=
EXTT8=
EXTT9=
EXTT10=
EXTT11=
EXTT12=
EXTT13=
EXTT14=
EXTT15=
EXTT16=
EXTT17=
PLAYORDER=
